# xmcd CD database file
#
# Track frame offsets:
#	180
#	22631
#	43350
#	73277
#	89934
#	114899
#	135526
#	150676
#	162149
#	180600
#	206257
#
# Disc length: 2954 seconds
#
# Revision: 0
# Processed by: cddbd v1.5PL3 Copyright (c) Steve Scherf et al.
# Submitted via: CDex 1.51
#
DISCID=900b880b
DTITLE=Elke Reiff Quartett - There Is More
DYEAR=1900
DGENRE=Jazz
TTITLE0=There Is More
TTITLE1=Arrival At The Castle
TTITLE2=No Tomorrorw
TTITLE3=Never Will I Marry
TTITLE4=Diebstahl Im Basar
TTITLE5=Dubidap
TTITLE6=Paris In The Rain
TTITLE7=Carlypso
TTITLE8=Getting On My Nerves
TTITLE9=Out Of Silence
TTITLE10=Blues For Ruurd
EXTD=
EXTT0=
EXTT1=
EXTT2=
EXTT3=
EXTT4=
EXTT5=
EXTT6=
EXTT7=
EXTT8=
EXTT9=
EXTT10=
PLAYORDER=
